<?xml version="1.0" standalone="no"?>
<!DOCTYPE svg PUBLIC "-//W3C//DTD SVG 20010904//EN"
 "http://www.w3.org/TR/2001/REC-SVG-20010904/DTD/svg10.dtd">
<svg version="1.0" xmlns="http://www.w3.org/2000/svg"
 width="1024.000000pt" height="1024.000000pt" viewBox="0 0 1024.000000 1024.000000"
 preserveAspectRatio="xMidYMid meet">
<metadata>
Created by potrace 1.16, written by Peter Selinger 2001-2019
</metadata>
<g transform="translate(0.000000,1024.000000) scale(0.100000,-0.100000)"
fill="#06b6d4" stroke="none">
<path d="M2260 7878 c0 -7 103 -148 228 -313 125 -165 293 -385 372 -490 79
-104 207 -273 285 -375 141 -185 228 -299 719 -950 143 -190 307 -405 363
-479 57 -74 103 -140 103 -147 0 -7 -40 -66 -89 -131 -49 -65 -201 -266 -338
-448 -418 -555 -830 -1101 -973 -1290 -364 -481 -662 -879 -667 -891 -4 -12
253 -14 1593 -14 978 0 1636 4 1694 10 200 21 507 98 701 175 809 324 1435
1034 1643 1863 124 494 126 930 7 1418 -55 224 -156 478 -272 681 -455 796
-1247 1310 -2134 1383 -72 6 -745 10 -1677 10 -1240 0 -1558 -3 -1558 -12z
m3288 -631 c464 -75 850 -266 1170 -581 306 -300 506 -655 596 -1059 110 -496
55 -983 -163 -1431 -118 -242 -250 -424 -443 -612 -274 -266 -581 -437 -961
-535 -189 -48 -233 -50 -1237 -53 -520 -2 -951 -1 -957 2 -7 2 -13 8 -13 12 0
4 31 48 68 97 38 49 83 110 101 136 l32 47 192 1 c106 0 269 4 363 8 158 6
174 9 227 34 60 30 124 95 161 162 20 39 21 53 26 530 l5 490 320 5 c293 5
323 7 352 24 46 28 67 73 61 128 -5 40 -31 79 -232 349 -125 167 -249 333
-276 369 -27 36 -275 367 -550 735 -275 369 -578 773 -673 898 -95 126 -174
233 -176 239 -2 6 3 14 10 19 7 4 437 7 954 5 819 -2 953 -5 1043 -19z"/>
</g>
</svg>
